# xmcd
#
# Track frame offsets: 
#        150
#        17836
#        35684
#        51327
#        66063
#        80122
#        93654
#        110801
#        124495
#        139548
#        155182
#        170234
#        184218
#        196809
#        212966
#        230288
#        245643
#        261029
#        276073
#        290551
#        304684
#        321617
#
# Disc length: 4503 seconds
#
# Revision: 0
# Processed by: cddbd v1.5.2PL0 Copyright (c) Steve Scherf et al.
# Submitted via: ExactAudioCopy v0.99pb4
#
DISCID=62119516
DTITLE=Various Artist - Viva Vlaanderen - Het Beste Van 2016 - CD 1
DYEAR=2016
DGENRE=Chanson
TTITLE0=Stan Van Samang - Candy
TTITLE1=Clouseau - Droomscenario
TTITLE2=Niels Destadsbader - Speeltijd
TTITLE3=Dana Winner - Jij Bent De Zon En Ik De Maan
TTITLE4=Milow - Howling At The Moon
TTITLE5=Laura Tesoro - What's The Pressure
TTITLE6=Laura Lynn - M'n Dromen Achterna
TTITLE7=Christoff - Ogen Weer Geopend
TTITLE8=Jo Vally - Als Je Jezelf Door Mijn Ogen Kon Zien
TTITLE9=Lissa Lewis - Sprong In Het Duister
TTITLE10=Tom Dice Feat. Lize Feryn - Hey There Sister
TTITLE11=Luc Steeno - Mijn Armen Om Je Schouders
TTITLE12=Tom Helsen - Broccoli and Wortels
TTITLE13=Dean - Ik Heb Je Wel Door
TTITLE14=John Terra - September Dauw
TTITLE15=Paul Severs and Dina Rodrigues - Ik Heb 'n Oogje Op Jou
TTITLE16=Amaryllis Temmerman - 1 Moment
TTITLE17=Sugarfree - We Gaan Ervoor
TTITLE18=Sasha and Davy - La Vita E Bella
TTITLE19=Michael Lanzo - Hoop In Mijn Hart
TTITLE20=Lisa Del Bo - Jij Tekent Mijn Leven
TTITLE21=Will Tura - Route 66
EXTD=
EXTT0=
EXTT1=
EXTT2=
EXTT3=
EXTT4=
EXTT5=
EXTT6=
EXTT7=
EXTT8=
EXTT9=
EXTT10=
EXTT11=
EXTT12=
EXTT13=
EXTT14=
EXTT15=
EXTT16=
EXTT17=
EXTT18=
EXTT19=
EXTT20=
EXTT21=
PLAYORDER=
